# xmcd CD database file
#
# Track frame offsets:
#	150
#	8632
#	18702
#	27827
#	40460
#	50412
#	64830
#	74122
#	85065
#	96575
#
# Disc length: 1434 seconds
#
# Revision: 2
# Processed by: cddbd v1.4PL0 Copyright (c) Steve Scherf et al.
# Submitted via: CDex 1.50
#
DISCID=8905980a
DTITLE=Mel Tillis - American Originals
DYEAR=1996
DGENRE=Country
TTITLE0=I Ain't Never
TTITLE1=Lonely Street
TTITLE2=Sawmill
TTITLE3=Walk On Boy
TTITLE4=Take My Hand
TTITLE5=Loco Weed
TTITLE6=Tupelo County Jail
TTITLE7=No Love Have I
TTITLE8=Heart Over Mind
TTITLE9=I'm Tired
EXTD=YEAR: 1996
EXTT0=
EXTT1=
EXTT2=
EXTT3=
EXTT4=
EXTT5=
EXTT6=
EXTT7=
EXTT8=
EXTT9=
PLAYORDER=
